# xmcd
#
# Track frame offsets: 
#        150
#        16140
#        43060
#        65005
#        98732
#        141725
#        171740
#        209347
#
# Disc length: 3369 seconds
#
# Revision: 1
# Processed by: cddbd v1.5.2PL0 Copyright (c) Steve Scherf et al.
# Submitted via: ExactAudioCopy v1.0b3
#
DISCID=7b0d2708
DTITLE=Ford Blues Band - Here We Go!
DYEAR=1992
DGENRE=Blues
TTITLE0=Get Yourself Together
TTITLE1=Tramp
TTITLE2=One More Mile
TTITLE3=One Kind Favor
TTITLE4=Blue And Lonesome
TTITLE5=You're A Bad One
TTITLE6=Fannie Mae
TTITLE7=Fool For Love
EXTD=YEAR: 1991 ID3G: 0
EXTT0=
EXTT1=
EXTT2=
EXTT3=
EXTT4=
EXTT5=
EXTT6=
EXTT7=
PLAYORDER=
